<svg xmlns="http://www.w3.org/2000/svg" width="860" height="105" viewBox="0 0 860 105">

  <!-- Git -->
  <g id="icon0">
    <!-- glow halo -->
    <circle cx="274" cy="40" r="36" fill="#F05032" opacity="0">
      <animate attributeName="opacity" values="0;0.2;0" dur="2.4s" begin="0.0s" repeatCount="indefinite"/>
      <animateTransform attributeName="transform" type="translate"
        values="0,0;0,-9;0,0;0,-4;0,0" keyTimes="0;0.25;0.5;0.75;1"
        dur="2.4s" begin="0.0s" repeatCount="indefinite"/>
    </circle>
    <!-- icon paths -->
    <g transform="translate(242,8)">
      <animateTransform attributeName="transform" type="translate"
        values="242,8;242,-1;242,8;242,3;242,8"
        keyTimes="0;0.25;0.5;0.75;1"
        dur="2.4s" begin="0.0s" repeatCount="indefinite"/>
      <path fill="#F05032" transform="scale(2.6667)" d="M23.546 10.93L13.067.452c-.604-.603-1.582-.603-2.188 0L8.708 2.627l2.76 2.76c.645-.215 1.379-.07 1.889.441.516.515.658 1.258.438 1.9l2.658 2.66c.645-.223 1.387-.078 1.9.435.721.72.721 1.884 0 2.604-.719.719-1.881.719-2.6 0-.539-.541-.674-1.337-.404-1.996L12.86 8.955v6.525c.176.086.342.203.488.348.713.721.713 1.883 0 2.6-.719.721-1.889.721-2.609 0-.719-.719-.719-1.879 0-2.6.177-.175.369-.31.573-.406V8.404c-.204-.096-.396-.231-.572-.406-.551-.551-.674-1.366-.396-2.028L6.75 3.163.452 9.432c-.605.605-.605 1.584 0 2.189l10.48 10.477c.604.604 1.582.604 2.186 0l10.428-10.43c.605-.603.605-1.582 0-2.187"/>
        
    </g>
    <!-- label -->
    <text x="274" y="90" text-anchor="middle"
      font-family="'Segoe UI',Arial,sans-serif" font-size="11" font-weight="700"
      fill="#cccccc" letter-spacing="0.5">Git</text>
  </g>
  <!-- Unity -->
  <g id="icon1">
    <!-- glow halo -->
    <circle cx="378" cy="40" r="36" fill="#ffffff" opacity="0">
      <animate attributeName="opacity" values="0;0.2;0" dur="2.4s" begin="0.2s" repeatCount="indefinite"/>
      <animateTransform attributeName="transform" type="translate"
        values="0,0;0,-9;0,0;0,-4;0,0" keyTimes="0;0.25;0.5;0.75;1"
        dur="2.4s" begin="0.2s" repeatCount="indefinite"/>
    </circle>
    <!-- icon paths -->
    <g transform="translate(346,8)">
      <animateTransform attributeName="transform" type="translate"
        values="346,8;346,-1;346,8;346,3;346,8"
        keyTimes="0;0.25;0.5;0.75;1"
        dur="2.4s" begin="0.2s" repeatCount="indefinite"/>
      <path fill="#ffffff" transform="scale(2.6667)" d="M12.005 0L0 6.953l3.68 6.35L0 19.652l12.005 6.953L24 19.652l-3.676-6.35L24 6.953zm0 2.312l8.697 5.02-2.252 3.895-6.445-3.72-6.445 3.72-2.252-3.895zm-8.318 6.863l2.252 3.878-2.252 3.894-2.43-3.894zm16.636 0l2.43 3.878-2.43 3.894-2.252-3.894zm-14.93 5.67l6.445 3.72v4.433L3.687 17.98l2.252-3.894zm13.215 0l2.252 3.894-8.317 4.98v-4.433z"/>
        
    </g>
    <!-- label -->
    <text x="378" y="90" text-anchor="middle"
      font-family="'Segoe UI',Arial,sans-serif" font-size="11" font-weight="700"
      fill="#cccccc" letter-spacing="0.5">Unity</text>
  </g>
  <!-- HTML5 -->
  <g id="icon2">
    <!-- glow halo -->
    <circle cx="482" cy="40" r="36" fill="#E34F26" opacity="0">
      <animate attributeName="opacity" values="0;0.2;0" dur="2.4s" begin="0.4s" repeatCount="indefinite"/>
      <animateTransform attributeName="transform" type="translate"
        values="0,0;0,-9;0,0;0,-4;0,0" keyTimes="0;0.25;0.5;0.75;1"
        dur="2.4s" begin="0.4s" repeatCount="indefinite"/>
    </circle>
    <!-- icon paths -->
    <g transform="translate(450,8)">
      <animateTransform attributeName="transform" type="translate"
        values="450,8;450,-1;450,8;450,3;450,8"
        keyTimes="0;0.25;0.5;0.75;1"
        dur="2.4s" begin="0.4s" repeatCount="indefinite"/>
      <path fill="#E34F26" transform="scale(2.6667)" d="M1.5 0h21l-1.91 21.563L11.977 24l-8.565-2.438L1.5 0zm17.09 4.413L5.41 4.41l.213 2.622 10.125.002-.255 2.716h-6.64l.24 2.573h6.182l-.366 3.523-2.91.804-2.956-.81-.188-2.11h-2.61l.29 3.855L12 19.288l5.373-1.53L18.59 4.414z"/>
        
    </g>
    <!-- label -->
    <text x="482" y="90" text-anchor="middle"
      font-family="'Segoe UI',Arial,sans-serif" font-size="11" font-weight="700"
      fill="#cccccc" letter-spacing="0.5">HTML5</text>
  </g>
  <!-- CSS3 -->
  <g id="icon3">
    <!-- glow halo -->
    <circle cx="586" cy="40" r="36" fill="#1572B6" opacity="0">
      <animate attributeName="opacity" values="0;0.2;0" dur="2.4s" begin="0.6s" repeatCount="indefinite"/>
      <animateTransform attributeName="transform" type="translate"
        values="0,0;0,-9;0,0;0,-4;0,0" keyTimes="0;0.25;0.5;0.75;1"
        dur="2.4s" begin="0.6s" repeatCount="indefinite"/>
    </circle>
    <!-- icon paths -->
    <g transform="translate(554,8)">
      <animateTransform attributeName="transform" type="translate"
        values="554,8;554,-1;554,8;554,3;554,8"
        keyTimes="0;0.25;0.5;0.75;1"
        dur="2.4s" begin="0.6s" repeatCount="indefinite"/>
      <path fill="#1572B6" transform="scale(2.6667)" d="M1.5 0h21l-1.91 21.563L11.977 24l-8.565-2.438L1.5 0zm17.09 4.413L5.41 4.41l.213 2.622 10.125.002-.255 2.716h-6.64l.24 2.573h6.182l-.366 3.523-2.91.804-2.956-.81-.188-2.11h-2.61l.29 3.855L12 19.288l5.373-1.53L18.59 4.414z"/>
        
    </g>
    <!-- label -->
    <text x="586" y="90" text-anchor="middle"
      font-family="'Segoe UI',Arial,sans-serif" font-size="11" font-weight="700"
      fill="#cccccc" letter-spacing="0.5">CSS3</text>
  </g>
</svg>