<svg xmlns="http://www.w3.org/2000/svg" width="860" height="105" viewBox="0 0 860 105">

  <!-- Python -->
  <g id="icon0">
    <!-- glow halo -->
    <circle cx="222" cy="40" r="36" fill="#FFD43B" opacity="0">
      <animate attributeName="opacity" values="0;0.2;0" dur="2.4s" begin="0.0s" repeatCount="indefinite"/>
      <animateTransform attributeName="transform" type="translate"
        values="0,0;0,-9;0,0;0,-4;0,0" keyTimes="0;0.25;0.5;0.75;1"
        dur="2.4s" begin="0.0s" repeatCount="indefinite"/>
    </circle>
    <!-- icon paths -->
    <g transform="translate(190,8)">
      <animateTransform attributeName="transform" type="translate"
        values="190,8;190,-1;190,8;190,3;190,8"
        keyTimes="0;0.25;0.5;0.75;1"
        dur="2.4s" begin="0.0s" repeatCount="indefinite"/>
      <path fill="#FFD43B" transform="scale(2.6667)" d="M11.914 0C5.82 0 6.2 2.656 6.2 2.656l.007 2.752h5.814v.826H3.9S0 5.789 0 11.969c0 6.18 3.403 5.963 3.403 5.963h2.031v-2.867s-.109-3.403 3.347-3.403h5.763s3.236.052 3.236-3.13V3.267S18.28 0 11.914 0zm-3.22 1.876a1.054 1.054 0 1 1 0 2.108 1.054 1.054 0 0 1 0-2.108z"/>
        <path fill="#3776AB" transform="scale(2.6667)" d="M12.086 23.985c6.096 0 5.716-2.656 5.716-2.656l-.007-2.752h-5.814v-.826h8.12s3.899.445 3.899-5.735c0-6.18-3.403-5.963-3.403-5.963h-2.031v2.867s.109 3.403-3.347 3.403H9.456s-3.236-.052-3.236 3.13v5.265s-.49 3.267 5.866 3.267zm3.22-1.877a1.054 1.054 0 1 1 0-2.108 1.054 1.054 0 0 1 0 2.108z"/>
        
    </g>
    <!-- label -->
    <text x="222" y="90" text-anchor="middle"
      font-family="'Segoe UI',Arial,sans-serif" font-size="11" font-weight="700"
      fill="#cccccc" letter-spacing="0.5">Python</text>
  </g>
  <!-- Java -->
  <g id="icon1">
    <!-- glow halo -->
    <circle cx="326" cy="40" r="36" fill="#f89820" opacity="0">
      <animate attributeName="opacity" values="0;0.2;0" dur="2.4s" begin="0.2s" repeatCount="indefinite"/>
      <animateTransform attributeName="transform" type="translate"
        values="0,0;0,-9;0,0;0,-4;0,0" keyTimes="0;0.25;0.5;0.75;1"
        dur="2.4s" begin="0.2s" repeatCount="indefinite"/>
    </circle>
    <!-- icon paths -->
    <g transform="translate(294,8)">
      <animateTransform attributeName="transform" type="translate"
        values="294,8;294,-1;294,8;294,3;294,8"
        keyTimes="0;0.25;0.5;0.75;1"
        dur="2.4s" begin="0.2s" repeatCount="indefinite"/>
      <path fill="#f89820" transform="scale(2.6667)" d="M8.851 18.56s-.917.534.653.714c1.902.218 2.874.187 4.969-.211 0 0 .552.346 1.321.646-4.699 2.013-10.633-.118-6.943-1.149M8.276 15.933s-1.028.761.542.924c2.032.209 3.636.227 6.413-.308 0 0 .384.389.987.602-5.679 1.661-12.007.13-7.942-1.218M13.116 11.475c1.158 1.333-.304 2.533-.304 2.533s2.939-1.518 1.589-3.418c-1.261-1.772-2.228-2.652 3.007-5.688 0-.001-8.216 2.051-4.292 6.573M19.33 20.504s.679.559-.747.991c-2.712.822-11.288 1.069-13.669.033-.856-.373.749-.89 1.254-.998.527-.114.828-.093.828-.093-.953-.671-6.156 1.317-2.643 1.887 9.58 1.553 17.462-.7 14.977-1.82M9.292 13.21s-4.362 1.036-1.544 1.412c1.189.159 3.561.123 5.77-.062 1.806-.152 3.618-.477 3.618-.477s-.637.272-1.098.587c-4.429 1.165-12.986.623-10.522-.568 2.082-1.006 3.776-.892 3.776-.892M17.116 17.584c4.503-2.34 2.421-4.589.968-4.285-.355.074-.515.138-.515.138s.132-.207.385-.297c2.875-1.011 5.086 2.981-.928 4.562 0 .001.07-.062.09-.118M14.401 0s2.494 2.494-2.365 6.33c-3.896 3.077-.888 4.832-.001 6.836-2.274-2.053-3.943-3.858-2.824-5.539 1.644-2.469 6.197-3.665 5.19-7.627M9.734 23.924c4.322.277 10.959-.153 11.116-2.198 0 0-.302.775-3.572 1.391-3.688.694-8.239.613-10.937.168 0-.001.553.457 3.393.639"/>
        
    </g>
    <!-- label -->
    <text x="326" y="90" text-anchor="middle"
      font-family="'Segoe UI',Arial,sans-serif" font-size="11" font-weight="700"
      fill="#cccccc" letter-spacing="0.5">Java</text>
  </g>
  <!-- C# -->
  <g id="icon2">
    <!-- glow halo -->
    <circle cx="430" cy="40" r="36" fill="#239120" opacity="0">
      <animate attributeName="opacity" values="0;0.2;0" dur="2.4s" begin="0.4s" repeatCount="indefinite"/>
      <animateTransform attributeName="transform" type="translate"
        values="0,0;0,-9;0,0;0,-4;0,0" keyTimes="0;0.25;0.5;0.75;1"
        dur="2.4s" begin="0.4s" repeatCount="indefinite"/>
    </circle>
    <!-- icon paths -->
    <g transform="translate(398,8)">
      <animateTransform attributeName="transform" type="translate"
        values="398,8;398,-1;398,8;398,3;398,8"
        keyTimes="0;0.25;0.5;0.75;1"
        dur="2.4s" begin="0.4s" repeatCount="indefinite"/>
      <path fill="#239120" transform="scale(2.6667)" d="M22.394 6c-.167-.29-.398-.543-.652-.69L12.926.22c-.509-.294-1.34-.294-1.848 0L2.26 5.31c-.508.293-.923 1.013-.923 1.6v10.18c0 .294.104.62.271.91.167.29.398.543.652.69l8.816 5.09c.508.293 1.34.293 1.848 0l8.816-5.09c.254-.147.485-.4.652-.69.167-.29.27-.616.27-.91V6.91c.003-.294-.1-.62-.268-.91zM12 19.109c-3.92 0-7.109-3.189-7.109-7.109S8.08 4.891 12 4.891c2.346 0 4.413 1.14 5.696 2.894l-2.142 1.236A4.138 4.138 0 0 0 12 7.655a4.345 4.345 0 1 0 0 8.69 4.14 4.14 0 0 0 3.554-2.039l2.142 1.233C16.413 17.97 14.346 19.11 12 19.109zm7.273-4.636l-.545 1.091h-1.09l.545-1.09h-1.09v-1.091h1.09l-.545-1.09h1.09l.545 1.09.546-1.09h1.09l-.545 1.09h1.09v1.09h-1.09l.545 1.091h-1.09l-.546-1.09zm3.819 0l-.545 1.091h-1.09l.545-1.09H20.91v-1.091h1.09l-.545-1.09h1.09l.546 1.09.545-1.09h1.09l-.545 1.09H25v1.09h-1.09l.545 1.091h-1.09l-.545-1.09z"/>
        
    </g>
    <!-- label -->
    <text x="430" y="90" text-anchor="middle"
      font-family="'Segoe UI',Arial,sans-serif" font-size="11" font-weight="700"
      fill="#cccccc" letter-spacing="0.5">C#</text>
  </g>
  <!-- PHP -->
  <g id="icon3">
    <!-- glow halo -->
    <circle cx="534" cy="40" r="36" fill="#777BB4" opacity="0">
      <animate attributeName="opacity" values="0;0.2;0" dur="2.4s" begin="0.6s" repeatCount="indefinite"/>
      <animateTransform attributeName="transform" type="translate"
        values="0,0;0,-9;0,0;0,-4;0,0" keyTimes="0;0.25;0.5;0.75;1"
        dur="2.4s" begin="0.6s" repeatCount="indefinite"/>
    </circle>
    <!-- icon paths -->
    <g transform="translate(502,8)">
      <animateTransform attributeName="transform" type="translate"
        values="502,8;502,-1;502,8;502,3;502,8"
        keyTimes="0;0.25;0.5;0.75;1"
        dur="2.4s" begin="0.6s" repeatCount="indefinite"/>
      <path fill="#777BB4" transform="scale(2.6667)" d="M7.01 10.207h-.944l-.236 1.145h.956c.111 0 .22-.01.323-.026.104-.016.192-.054.261-.109a.483.483 0 0 0 .153-.194.745.745 0 0 0 .053-.292c0-.217-.055-.374-.165-.47-.109-.098-.293-.147-.551-.147zm4.82.002h-.94l-.236 1.145h.952c.111 0 .22-.01.323-.026.104-.016.192-.054.261-.109a.483.483 0 0 0 .153-.194.745.745 0 0 0 .053-.292c0-.217-.055-.374-.165-.47-.109-.098-.293-.147-.551-.147zM12 2C6.477 2 2 6.477 2 12s4.477 10 10 10 10-4.477 10-10S17.523 2 12 2zm-1.173 10.854c-.176.216-.403.368-.68.455-.278.087-.59.13-.94.13H8.019l-.236 1.17H6.57l.887-4.428h2.434c.346 0 .64.045.882.136.243.09.44.213.589.368.15.155.254.333.313.532.058.199.072.41.04.63a1.84 1.84 0 0 1-.176.573 1.733 1.733 0 0 1-.313.434zm4.836 0c-.176.216-.403.368-.68.455-.278.087-.59.13-.94.13h-1.188l-.236 1.17H11.41l.887-4.428h2.434c.346 0 .64.045.882.136.243.09.44.213.589.368.15.155.254.333.313.532.058.199.072.41.04.63a1.84 1.84 0 0 1-.176.573 1.733 1.733 0 0 1-.313.434zm3.645-2.267h-1.115l-.651 3.243h-1.213l.651-3.243H16.1l.208-1.03 3.419-.007-.208 1.037z"/>
        
    </g>
    <!-- label -->
    <text x="534" y="90" text-anchor="middle"
      font-family="'Segoe UI',Arial,sans-serif" font-size="11" font-weight="700"
      fill="#cccccc" letter-spacing="0.5">PHP</text>
  </g>
  <!-- JavaScript -->
  <g id="icon4">
    <!-- glow halo -->
    <circle cx="638" cy="40" r="36" fill="#F7DF1E" opacity="0">
      <animate attributeName="opacity" values="0;0.2;0" dur="2.4s" begin="0.8s" repeatCount="indefinite"/>
      <animateTransform attributeName="transform" type="translate"
        values="0,0;0,-9;0,0;0,-4;0,0" keyTimes="0;0.25;0.5;0.75;1"
        dur="2.4s" begin="0.8s" repeatCount="indefinite"/>
    </circle>
    <!-- icon paths -->
    <g transform="translate(606,8)">
      <animateTransform attributeName="transform" type="translate"
        values="606,8;606,-1;606,8;606,3;606,8"
        keyTimes="0;0.25;0.5;0.75;1"
        dur="2.4s" begin="0.8s" repeatCount="indefinite"/>
      <path fill="#F7DF1E" transform="scale(2.6667)" d="M0 0h24v24H0V0z"/>
        <path fill="#000000" transform="scale(2.6667)" d="M22.034 18.276c-.175-1.095-.888-2.015-3.003-2.873-.736-.345-1.554-.585-1.797-1.14-.091-.33-.105-.51-.046-.705.15-.646.915-.84 1.515-.66.39.12.75.42.976.9 1.034-.676 1.034-.676 1.755-1.125-.27-.42-.404-.601-.586-.78-.63-.705-1.469-1.065-2.834-1.034l-.705.089c-.676.165-1.32.525-1.71 1.005-1.14 1.291-.811 3.541.569 4.471 1.365 1.02 3.361 1.244 3.616 2.205.24 1.17-.87 1.545-1.966 1.41-.811-.18-1.26-.586-1.755-1.336l-1.83 1.051c.21.48.45.689.81 1.109 1.74 1.756 6.09 1.666 6.871-1.004.029-.09.24-.705.074-1.65l.046.067zm-8.983-7.245h-2.248c0 1.938-.009 3.864-.009 5.805 0 1.232.063 2.363-.138 2.711-.33.689-1.18.601-1.566.48-.396-.196-.597-.466-.83-.855-.063-.105-.11-.196-.127-.196l-1.825 1.125c.305.63.75 1.172 1.324 1.517.855.51 2.004.675 3.207.405.783-.226 1.458-.691 1.811-1.411.51-.93.402-2.07.397-3.346.012-2.054 0-4.109 0-6.179l.004-.056z"/>
        
    </g>
    <!-- label -->
    <text x="638" y="90" text-anchor="middle"
      font-family="'Segoe UI',Arial,sans-serif" font-size="11" font-weight="700"
      fill="#cccccc" letter-spacing="0.5">JavaScript</text>
  </g>
</svg>